<?xml version="1.0" encoding="utf-8"?>
<!-- Generator: Adobe Illustrator 16.0.1, SVG Export Plug-In . SVG Version: 6.00 Build 0)  -->
<!DOCTYPE svg PUBLIC "-//W3C//DTD SVG 1.1//EN" "http://www.w3.org/Graphics/SVG/1.1/DTD/svg11.dtd">
<svg version="1.1" id="Layer_1" xmlns="http://www.w3.org/2000/svg" xmlns:xlink="http://www.w3.org/1999/xlink" x="0px" y="0px"
	 width="650px" height="650px" viewBox="689 0 650 650" enable-background="new 689 0 650 650" xml:space="preserve">
<linearGradient id="SVGID_1_" gradientUnits="userSpaceOnUse" x1="249.9873" y1="449.876" x2="391.4087" y2="308.4546" gradientTransform="matrix(1 0 0 -1 0 651)">
	<stop  offset="0" style="stop-color:#4546E5"/>
	<stop  offset="0.1488" style="stop-color:#4546DE"/>
	<stop  offset="0.3681" style="stop-color:#4546CA"/>
	<stop  offset="0.6311" style="stop-color:#4546A9"/>
	<stop  offset="0.9257" style="stop-color:#45467D"/>
	<stop  offset="1" style="stop-color:#454670"/>
</linearGradient>
<circle fill="url(#SVGID_1_)" cx="320.697" cy="271.836" r="100"/>
<path id="path76" fill="#FBBF24" d="M344.385,271.467c-0.008-2.376-2.081-4.297-4.644-4.302h-11.313
	c-2.563,0.005-4.636,1.926-4.644,4.302v1h20.596v-1H344.385z M346.24,271.467v1.034c3.963,0.368,6.974,3.448,6.981,7.135v29.698
	h6.189v-46.957c0-0.476,0.414-0.86,0.929-0.86c0.514,0,0.929,0.384,0.929,0.86v46.957h10.188v-49.274
	c0.011-2.403-1.689-4.525-4.173-5.22l-32.182-9.065v-6.851c0-0.476-0.416-0.86-0.929-0.86c-0.515,0-0.93,0.384-0.93,0.86v26.519
	h6.587C343.383,265.496,346.234,268.175,346.24,271.467L346.24,271.467z M351.365,279.636c0-3.011-2.629-5.449-5.881-5.449h-24.966
	v11.852h30.846L351.365,279.636L351.365,279.636z M305.048,268.76v40.55h13.615v-51.795h-15.878c-0.516,0-0.931-0.385-0.931-0.861
	c0-0.476,0.417-0.859,0.931-0.859h15.878v-8.516h-15.878c-0.516,0-0.931-0.384-0.931-0.859c0-0.478,0.417-0.861,0.931-0.861h15.878
	v-5.738c0.015-3.006-2.597-5.461-5.843-5.484h-20.029c-3.248,0-5.879,2.44-5.879,5.452v21.802h10.397
	c2.055,0,4.017,0.758,5.472,2.099C304.23,265.034,305.046,266.855,305.048,268.76L305.048,268.76z M281.221,309.335v-35.928
	c0-0.476,0.414-0.861,0.928-0.861c0.516,0,0.93,0.385,0.93,0.861v35.928h8.49v-35.928c0-0.476,0.416-0.861,0.929-0.861
	c0.515,0,0.93,0.385,0.93,0.861v35.928h9.767V268.76c0-3.012-2.631-5.449-5.879-5.449h-19.98c-3.248,0-5.877,2.437-5.877,5.449
	v40.55L281.221,309.335z M351.365,287.761h-30.847v11.474h30.847V287.761z M351.365,309.335v-8.447h-30.847v8.4L351.365,309.335z"/>
<g>
	<path fill="#4F46E5" d="M149.826,391.836h56.609c3.104,0,5.666,1.788,7.691,5.366c0.37,1.104,0.556,1.954,0.556,2.556v2.006
		c0,2.874-1.819,5.281-5.463,7.22c-1.181,0.466-2.294,0.702-3.339,0.702h-46.342v9.175h36.375c4.351,0,7.336,2.226,8.955,6.673
		c0.202,0.7,0.304,1.353,0.304,1.955v0.602c0,3.943-2.312,6.769-6.932,8.474l-1.466,0.151H159.54v18.402
		c0,3.909-2.276,6.736-6.829,8.476c-0.508,0.101-0.928,0.149-1.266,0.149h-2.023c-3.07,0-5.584-1.838-7.538-5.517
		c-0.371-0.968-0.557-1.821-0.557-2.556v-55.459c0-3.643,2.159-6.334,6.477-8.072C148.545,391.937,149.219,391.836,149.826,391.836z
		"/>
	<path fill="#4F46E5" d="M259.749,391.836h28.988c3.069,0,5.633,1.788,7.692,5.366c0.369,1.104,0.554,1.954,0.554,2.556v2.006
		c0,2.874-1.82,5.281-5.463,7.22c-1.182,0.466-2.293,0.702-3.337,0.702h-24.386c-9.646,0-16.594,4.012-20.843,12.036
		c-0.744,2.205-1.113,4.329-1.113,6.367c0,6.518,3.743,11.749,11.232,15.694c3.303,1.404,6.491,2.106,9.56,2.106h24.689
		c4.721,0,7.891,2.221,9.511,6.669l0.151,1.403v2.006c0,2.775-1.736,5.131-5.21,7.07c-0.979,0.469-1.89,0.701-2.731,0.701h-30.202
		c-7.924,0-15.716-3.158-23.373-9.476c-4.352-4.379-6.998-7.823-7.942-10.33c-2.598-5.115-3.896-10.029-3.896-14.743v-2.657
		c0-8.557,3.607-16.629,10.826-24.219C242.211,395.329,250.643,391.836,259.749,391.836z"/>
	<path fill="#4F46E5" d="M321.156,391.836h1.365c3.103,0,5.682,1.704,7.739,5.114c0.575,1.105,0.859,2.423,0.859,3.961v54.205
		c0,3.907-2.326,6.736-6.978,8.475c-0.542,0.101-0.98,0.151-1.315,0.151h-2.075c-3.172,0-5.753-1.84-7.743-5.519
		c-0.405-0.968-0.605-1.821-0.605-2.556v-55.459c0-3.642,2.227-6.333,6.679-8.072C319.823,391.937,320.514,391.836,321.156,391.836z
		"/>
	<path fill="#4F46E5" d="M355.039,391.836h56.612c3.1,0,5.665,1.788,7.688,5.366c0.374,1.104,0.559,1.954,0.559,2.556v2.006
		c0,2.874-1.821,5.281-5.467,7.22c-1.179,0.466-2.294,0.702-3.34,0.702h-18.768v45.681c0,3.709-2.207,6.451-6.625,8.224
		l-1.469,0.149h-2.023c-2.935,0-5.396-1.788-7.386-5.366c-0.475-1.171-0.708-2.256-0.708-3.259v-45.429h-18.315
		c-4.282,0-7.269-2.123-8.952-6.365c-0.206-0.873-0.304-1.49-0.304-1.854v-1.258c0-3.643,2.157-6.334,6.473-8.072
		C353.759,391.937,354.434,391.836,355.039,391.836z"/>
	<path fill="#4F46E5" d="M443.563,391.836h1.416c2.395,0,5.041,1.604,7.943,4.813c12.613,12.334,19.021,18.52,19.224,18.554
		c14.908-14.811,22.617-22.215,23.119-22.215c1.418-0.768,2.665-1.152,3.743-1.152h1.418c3.203,0,5.768,1.838,7.689,5.518
		c0.372,0.968,0.557,1.82,0.557,2.557v1.703c0,2.542-2.21,5.648-6.626,9.329l-20.944,20.506v23.919c0,3.677-2.209,6.418-6.627,8.224
		l-1.467,0.151h-2.024c-2.966,0-5.465-1.84-7.487-5.519c-0.406-1.168-0.609-2.153-0.609-2.955v-23.82
		c-17.47-17.012-26.22-25.638-26.255-25.875c-0.878-1.636-1.317-3.006-1.317-4.106v-1.258c0-3.307,1.873-5.913,5.617-7.821
		C441.91,392.021,442.788,391.836,443.563,391.836z"/>
</g>
<g>
	<path fill="#4F46E5" d="M842.971,165h56.609c3.104,0,5.666,1.788,7.691,5.366c0.37,1.104,0.556,1.954,0.556,2.556v2.006
		c0,2.874-1.819,5.281-5.463,7.22c-1.181,0.466-2.294,0.702-3.339,0.702h-46.342v9.175h36.375c4.351,0,7.336,2.226,8.955,6.673
		c0.202,0.7,0.304,1.353,0.304,1.955v0.602c0,3.943-2.312,6.769-6.932,8.474l-1.466,0.151h-37.235v18.402
		c0,3.909-2.276,6.736-6.829,8.476c-0.508,0.101-0.928,0.149-1.266,0.149h-2.023c-3.07,0-5.584-1.838-7.538-5.517
		c-0.371-0.968-0.557-1.821-0.557-2.556v-55.459c0-3.643,2.159-6.334,6.477-8.072C841.689,165.101,842.363,165,842.971,165z"/>
	<path fill="#4F46E5" d="M952.894,165h28.988c3.069,0,5.633,1.788,7.692,5.366c0.369,1.104,0.554,1.954,0.554,2.556v2.006
		c0,2.874-1.82,5.281-5.463,7.22c-1.182,0.466-2.293,0.702-3.337,0.702h-24.386c-9.646,0-16.594,4.012-20.843,12.036
		c-0.744,2.205-1.113,4.329-1.113,6.367c0,6.518,3.743,11.749,11.232,15.694c3.303,1.404,6.491,2.106,9.56,2.106h24.689
		c4.721,0,7.891,2.221,9.511,6.669l0.151,1.403v2.006c0,2.775-1.736,5.131-5.21,7.07c-0.979,0.469-1.89,0.701-2.731,0.701h-30.202
		c-7.924,0-15.716-3.158-23.373-9.476c-4.352-4.379-6.998-7.823-7.942-10.33c-2.598-5.115-3.896-10.029-3.896-14.743v-2.657
		c0-8.557,3.607-16.629,10.826-24.219C935.355,168.493,943.787,165,952.894,165z"/>
	<path fill="#4F46E5" d="M1014.301,165h1.365c3.103,0,5.682,1.704,7.739,5.114c0.575,1.105,0.859,2.423,0.859,3.961v54.205
		c0,3.907-2.326,6.736-6.978,8.475c-0.542,0.101-0.98,0.151-1.315,0.151h-2.075c-3.172,0-5.753-1.84-7.743-5.519
		c-0.405-0.968-0.605-1.821-0.605-2.556v-55.459c0-3.642,2.227-6.333,6.679-8.072C1012.968,165.101,1013.658,165,1014.301,165z"/>
	<path fill="#4F46E5" d="M1048.184,165h56.612c3.1,0,5.665,1.788,7.688,5.366c0.374,1.104,0.559,1.954,0.559,2.556v2.006
		c0,2.874-1.821,5.281-5.467,7.22c-1.179,0.466-2.294,0.702-3.34,0.702h-18.768v45.681c0,3.709-2.207,6.451-6.625,8.224
		l-1.469,0.149h-2.023c-2.935,0-5.396-1.788-7.386-5.366c-0.475-1.171-0.708-2.256-0.708-3.259V182.85h-18.315
		c-4.282,0-7.269-2.123-8.952-6.365c-0.206-0.873-0.304-1.49-0.304-1.854v-1.258c0-3.643,2.157-6.334,6.473-8.072
		C1046.903,165.101,1047.578,165,1048.184,165z"/>
	<path fill="#4F46E5" d="M1136.708,165h1.416c2.395,0,5.041,1.604,7.943,4.813c12.613,12.334,19.021,18.52,19.224,18.554
		c14.908-14.811,22.617-22.215,23.119-22.215c1.418-0.768,2.665-1.152,3.743-1.152h1.418c3.203,0,5.768,1.838,7.689,5.518
		c0.372,0.968,0.557,1.82,0.557,2.557v1.703c0,2.542-2.21,5.648-6.626,9.329l-20.944,20.506v23.919c0,3.677-2.209,6.418-6.627,8.224
		l-1.467,0.151h-2.024c-2.966,0-5.465-1.84-7.487-5.519c-0.406-1.168-0.609-2.153-0.609-2.955v-23.82
		c-17.47-17.012-26.22-25.638-26.255-25.875c-0.878-1.636-1.317-3.006-1.317-4.106v-1.258c0-3.307,1.873-5.913,5.617-7.821
		C1135.055,165.185,1135.933,165,1136.708,165z"/>
</g>
<rect x="-178.335" fill="#4F46E5" width="151.492" height="129.5"/>
<rect x="-178.335" y="155" fill="#FBBF24" width="151.492" height="129.5"/>
<g>
	<path fill="#FBBF24" d="M839.732,288.594h56.609c3.104,0,5.666,1.788,7.691,5.366c0.37,1.104,0.556,1.954,0.556,2.556v2.006
		c0,2.874-1.819,5.281-5.463,7.22c-1.181,0.466-2.294,0.702-3.339,0.702h-46.342v9.175h36.375c4.351,0,7.336,2.226,8.955,6.673
		c0.202,0.7,0.304,1.353,0.304,1.955v0.602c0,3.943-2.312,6.769-6.932,8.474l-1.466,0.151h-37.235v18.402
		c0,3.909-2.276,6.736-6.829,8.476c-0.508,0.101-0.928,0.149-1.266,0.149h-2.023c-3.07,0-5.584-1.838-7.538-5.517
		c-0.371-0.968-0.557-1.821-0.557-2.556v-55.459c0-3.643,2.159-6.334,6.477-8.072C838.451,288.694,839.125,288.594,839.732,288.594z
		"/>
	<path fill="#FBBF24" d="M949.655,288.594h28.988c3.069,0,5.633,1.788,7.692,5.366c0.369,1.104,0.554,1.954,0.554,2.556v2.006
		c0,2.874-1.82,5.281-5.463,7.22c-1.182,0.466-2.293,0.702-3.337,0.702h-24.386c-9.646,0-16.594,4.012-20.843,12.036
		c-0.744,2.205-1.113,4.329-1.113,6.367c0,6.518,3.743,11.749,11.232,15.694c3.303,1.404,6.491,2.106,9.56,2.106h24.689
		c4.721,0,7.891,2.221,9.511,6.669l0.151,1.403v2.006c0,2.775-1.736,5.131-5.21,7.07c-0.979,0.469-1.89,0.701-2.731,0.701h-30.202
		c-7.924,0-15.716-3.158-23.373-9.476c-4.352-4.379-6.998-7.823-7.942-10.33c-2.598-5.115-3.896-10.029-3.896-14.743v-2.657
		c0-8.557,3.607-16.629,10.826-24.219C932.117,292.087,940.549,288.594,949.655,288.594z"/>
	<path fill="#FBBF24" d="M1011.063,288.594h1.365c3.103,0,5.682,1.704,7.739,5.114c0.575,1.105,0.859,2.423,0.859,3.961v54.205
		c0,3.907-2.326,6.736-6.978,8.475c-0.542,0.101-0.98,0.151-1.315,0.151h-2.075c-3.172,0-5.753-1.84-7.743-5.519
		c-0.405-0.968-0.605-1.821-0.605-2.556v-55.459c0-3.642,2.227-6.333,6.679-8.072
		C1009.729,288.694,1010.42,288.594,1011.063,288.594z"/>
	<path fill="#FBBF24" d="M1044.945,288.594h56.612c3.1,0,5.665,1.788,7.688,5.366c0.374,1.104,0.559,1.954,0.559,2.556v2.006
		c0,2.874-1.821,5.281-5.467,7.22c-1.179,0.466-2.294,0.702-3.34,0.702h-18.768v45.681c0,3.709-2.207,6.451-6.625,8.224
		l-1.469,0.149h-2.023c-2.935,0-5.396-1.788-7.386-5.366c-0.475-1.171-0.708-2.256-0.708-3.259v-45.429h-18.315
		c-4.282,0-7.269-2.123-8.952-6.365c-0.206-0.873-0.304-1.49-0.304-1.854v-1.258c0-3.643,2.157-6.334,6.473-8.072
		C1043.665,288.694,1044.34,288.594,1044.945,288.594z"/>
	<path fill="#FBBF24" d="M1133.47,288.594h1.416c2.395,0,5.041,1.604,7.943,4.813c12.613,12.334,19.021,18.52,19.224,18.554
		c14.908-14.811,22.617-22.215,23.119-22.215c1.418-0.768,2.665-1.152,3.743-1.152h1.418c3.203,0,5.768,1.838,7.689,5.518
		c0.372,0.968,0.557,1.82,0.557,2.557v1.703c0,2.542-2.21,5.648-6.626,9.329l-20.944,20.506v23.919c0,3.677-2.209,6.418-6.627,8.224
		l-1.467,0.151h-2.024c-2.966,0-5.465-1.84-7.487-5.519c-0.406-1.168-0.609-2.153-0.609-2.955v-23.82
		c-17.47-17.012-26.22-25.638-26.255-25.875c-0.878-1.636-1.317-3.006-1.317-4.106v-1.258c0-3.307,1.873-5.913,5.617-7.821
		C1131.816,288.778,1132.694,288.594,1133.47,288.594z"/>
</g>
<g>
	<path fill="#D3D3D3" d="M839.732,407.336h56.609c3.104,0,5.666,1.788,7.691,5.366c0.37,1.104,0.556,1.954,0.556,2.556v2.006
		c0,2.874-1.819,5.281-5.463,7.22c-1.181,0.466-2.294,0.702-3.339,0.702h-46.342v9.175h36.375c4.351,0,7.336,2.226,8.955,6.673
		c0.202,0.7,0.304,1.353,0.304,1.955v0.602c0,3.943-2.312,6.769-6.932,8.474l-1.466,0.151h-37.235v18.402
		c0,3.909-2.276,6.736-6.829,8.476c-0.508,0.101-0.928,0.149-1.266,0.149h-2.023c-3.07,0-5.584-1.838-7.538-5.517
		c-0.371-0.968-0.557-1.821-0.557-2.556v-55.459c0-3.643,2.159-6.334,6.477-8.072C838.451,407.437,839.125,407.336,839.732,407.336z
		"/>
	<path fill="#D3D3D3" d="M949.655,407.336h28.988c3.069,0,5.633,1.788,7.692,5.366c0.369,1.104,0.554,1.954,0.554,2.556v2.006
		c0,2.874-1.82,5.281-5.463,7.22c-1.182,0.466-2.293,0.702-3.337,0.702h-24.386c-9.646,0-16.594,4.012-20.843,12.036
		c-0.744,2.205-1.113,4.329-1.113,6.367c0,6.518,3.743,11.749,11.232,15.694c3.303,1.404,6.491,2.106,9.56,2.106h24.689
		c4.721,0,7.891,2.221,9.511,6.669l0.151,1.403v2.006c0,2.775-1.736,5.131-5.21,7.07c-0.979,0.469-1.89,0.701-2.731,0.701h-30.202
		c-7.924,0-15.716-3.158-23.373-9.476c-4.352-4.379-6.998-7.823-7.942-10.33c-2.598-5.115-3.896-10.029-3.896-14.743v-2.657
		c0-8.557,3.607-16.629,10.826-24.219C932.117,410.829,940.549,407.336,949.655,407.336z"/>
	<path fill="#D3D3D3" d="M1011.063,407.336h1.365c3.103,0,5.682,1.704,7.739,5.114c0.575,1.105,0.859,2.423,0.859,3.961v54.205
		c0,3.907-2.326,6.736-6.978,8.475c-0.542,0.101-0.98,0.151-1.315,0.151h-2.075c-3.172,0-5.753-1.84-7.743-5.519
		c-0.405-0.968-0.605-1.821-0.605-2.556v-55.459c0-3.642,2.227-6.333,6.679-8.072
		C1009.729,407.437,1010.42,407.336,1011.063,407.336z"/>
	<path fill="#D3D3D3" d="M1044.945,407.336h56.612c3.1,0,5.665,1.788,7.688,5.366c0.374,1.104,0.559,1.954,0.559,2.556v2.006
		c0,2.874-1.821,5.281-5.467,7.22c-1.179,0.466-2.294,0.702-3.34,0.702h-18.768v45.681c0,3.709-2.207,6.451-6.625,8.224
		l-1.469,0.149h-2.023c-2.935,0-5.396-1.788-7.386-5.366c-0.475-1.171-0.708-2.256-0.708-3.259v-45.429h-18.315
		c-4.282,0-7.269-2.123-8.952-6.365c-0.206-0.873-0.304-1.49-0.304-1.854v-1.258c0-3.643,2.157-6.334,6.473-8.072
		C1043.665,407.437,1044.34,407.336,1044.945,407.336z"/>
	<path fill="#D3D3D3" d="M1133.47,407.336h1.416c2.395,0,5.041,1.604,7.943,4.813c12.613,12.334,19.021,18.52,19.224,18.554
		c14.908-14.811,22.617-22.215,23.119-22.215c1.418-0.768,2.665-1.152,3.743-1.152h1.418c3.203,0,5.768,1.838,7.689,5.518
		c0.372,0.968,0.557,1.82,0.557,2.557v1.703c0,2.542-2.21,5.648-6.626,9.329l-20.944,20.506v23.919c0,3.677-2.209,6.418-6.627,8.224
		l-1.467,0.151h-2.024c-2.966,0-5.465-1.84-7.487-5.519c-0.406-1.168-0.609-2.153-0.609-2.955v-23.82
		c-17.47-17.012-26.22-25.638-26.255-25.875c-0.878-1.636-1.317-3.006-1.317-4.106v-1.258c0-3.307,1.873-5.913,5.617-7.821
		C1131.816,407.521,1132.694,407.336,1133.47,407.336z"/>
</g>
<linearGradient id="SVGID_2_" gradientUnits="userSpaceOnUse" x1="1579.7832" y1="453.5039" x2="1833.8796" y2="199.4075" gradientTransform="matrix(1 0 0 -1 0 651)">
	<stop  offset="0" style="stop-color:#4546E5"/>
	<stop  offset="0.1488" style="stop-color:#4546DE"/>
	<stop  offset="0.3681" style="stop-color:#4546CA"/>
	<stop  offset="0.6311" style="stop-color:#4546A9"/>
	<stop  offset="0.9257" style="stop-color:#45467D"/>
	<stop  offset="1" style="stop-color:#454670"/>
</linearGradient>
<circle fill="url(#SVGID_2_)" cx="1706.831" cy="324.545" r="179.674"/>
<path id="path76_1_" fill="#FBBF24" d="M1749.391,307.883c-0.014-4.269-3.739-7.72-8.343-7.73h-20.326
	c-4.605,0.01-8.328,3.461-8.343,7.73v1.796h37.005v-1.796H1749.391z M1752.725,307.883v1.857c7.12,0.662,12.53,6.195,12.544,12.821
	v53.358h11.121v-84.368c0-0.854,0.744-1.546,1.668-1.546s1.669,0.69,1.669,1.546v84.368h18.305v-88.531
	c0.019-4.317-3.036-8.131-7.498-9.379l-57.821-16.288v-12.31c0-0.855-0.748-1.545-1.669-1.545c-0.925,0-1.671,0.689-1.671,1.545
	v47.646h11.835C1747.591,297.155,1752.714,301.969,1752.725,307.883L1752.725,307.883z M1761.933,322.562
	c0-5.411-4.723-9.79-10.566-9.79h-44.856v21.293h55.422L1761.933,322.562L1761.933,322.562z M1678.713,303.019v72.857h24.463
	v-93.063h-28.528c-0.926,0-1.672-0.691-1.672-1.548c0-0.854,0.749-1.543,1.672-1.543h28.528v-15.301h-28.528
	c-0.926,0-1.672-0.689-1.672-1.544c0-0.858,0.749-1.547,1.672-1.547h28.528v-10.309c0.026-5.402-4.665-9.813-10.498-9.854h-35.987
	c-5.836,0-10.563,4.384-10.563,9.795v39.173h18.682c3.691,0,7.217,1.363,9.831,3.771
	C1677.244,296.325,1678.71,299.596,1678.713,303.019L1678.713,303.019z M1635.902,375.924v-64.553c0-0.856,0.743-1.548,1.667-1.548
	c0.926,0,1.67,0.691,1.67,1.548v64.553h15.255v-64.553c0-0.856,0.747-1.548,1.669-1.548c0.924,0,1.67,0.691,1.67,1.548v64.553
	h17.548v-72.905c0-5.412-4.727-9.79-10.563-9.79h-35.899c-5.836,0-10.56,4.377-10.56,9.79v72.857L1635.902,375.924z
	 M1761.933,337.16h-55.423v20.613h55.423V337.16z M1761.933,375.924v-15.178h-55.423v15.092L1761.933,375.924z"/>
<g>
	<path fill="#FFFFFF" d="M1654.087,391.336h18.015c0.987,0,1.803,0.568,2.447,1.707c0.118,0.352,0.177,0.622,0.177,0.813v0.638
		c0,0.915-0.579,1.682-1.738,2.298c-0.376,0.148-0.73,0.224-1.063,0.224h-14.747v2.92h11.575c1.385,0,2.335,0.707,2.85,2.123
		c0.064,0.223,0.097,0.43,0.097,0.622v0.191c0,1.255-0.735,2.153-2.205,2.696l-0.467,0.049h-11.849v5.855
		c0,1.244-0.725,2.144-2.174,2.697c-0.161,0.031-0.295,0.047-0.402,0.047h-0.644c-0.978,0-1.777-0.584-2.399-1.755
		c-0.117-0.308-0.177-0.58-0.177-0.813V394c0-1.158,0.688-2.016,2.062-2.568C1653.68,391.367,1653.895,391.336,1654.087,391.336z"/>
	<path fill="#FFFFFF" d="M1689.066,391.336h9.225c0.977,0,1.792,0.568,2.448,1.707c0.117,0.352,0.176,0.622,0.176,0.813v0.638
		c0,0.915-0.579,1.682-1.738,2.298c-0.376,0.148-0.729,0.224-1.062,0.224h-7.761c-3.069,0-5.28,1.276-6.632,3.83
		c-0.237,0.701-0.354,1.377-0.354,2.025c0,2.074,1.191,3.739,3.574,4.994c1.052,0.447,2.065,0.671,3.042,0.671h7.856
		c1.503,0,2.512,0.706,3.027,2.122l0.048,0.447v0.638c0,0.884-0.553,1.633-1.658,2.25c-0.312,0.149-0.601,0.224-0.869,0.224h-9.611
		c-2.521,0-5.001-1.006-7.438-3.016c-1.385-1.394-2.227-2.49-2.527-3.287c-0.826-1.628-1.239-3.191-1.239-4.691v-0.846
		c0-2.723,1.147-5.292,3.445-7.707C1683.485,392.447,1686.169,391.336,1689.066,391.336z"/>
	<path fill="#FFFFFF" d="M1708.607,391.336h0.435c0.986,0,1.808,0.541,2.463,1.627c0.183,0.352,0.273,0.771,0.273,1.261v17.249
		c0,1.242-0.74,2.143-2.221,2.696c-0.173,0.032-0.313,0.048-0.419,0.048h-0.66c-1.01,0-1.831-0.585-2.464-1.756
		c-0.129-0.309-0.193-0.58-0.193-0.813V394c0-1.158,0.709-2.016,2.126-2.568C1708.184,391.367,1708.403,391.336,1708.607,391.336z"
		/>
	<path fill="#FFFFFF" d="M1719.39,391.336h18.015c0.986,0,1.803,0.568,2.446,1.707c0.119,0.352,0.178,0.622,0.178,0.813v0.638
		c0,0.915-0.579,1.682-1.74,2.298c-0.375,0.148-0.729,0.224-1.063,0.224h-5.972v14.536c0,1.181-0.702,2.054-2.108,2.616
		l-0.468,0.049h-0.644c-0.934,0-1.717-0.569-2.351-1.708c-0.15-0.372-0.225-0.718-0.225-1.037v-14.456h-5.829
		c-1.362,0-2.313-0.676-2.848-2.025c-0.066-0.277-0.097-0.475-0.097-0.59V394c0-1.16,0.687-2.016,2.06-2.568
		C1718.981,391.367,1719.196,391.336,1719.39,391.336z"/>
	<path fill="#FFFFFF" d="M1747.56,391.336h0.45c0.762,0,1.604,0.51,2.527,1.531c4.014,3.925,6.054,5.894,6.118,5.904
		c4.744-4.713,7.196-7.069,7.356-7.069c0.451-0.244,0.848-0.366,1.191-0.366h0.451c1.019,0,1.835,0.584,2.446,1.756
		c0.119,0.307,0.178,0.578,0.178,0.813v0.543c0,0.809-0.703,1.797-2.108,2.969l-6.665,6.524v7.611c0,1.171-0.703,2.043-2.109,2.617
		l-0.467,0.048h-0.644c-0.944,0-1.739-0.585-2.383-1.756c-0.13-0.371-0.194-0.686-0.194-0.94v-7.58
		c-5.559-5.413-8.343-8.158-8.354-8.233c-0.279-0.521-0.419-0.957-0.419-1.307V394c0-1.053,0.596-1.882,1.788-2.489
		C1747.033,391.395,1747.313,391.336,1747.56,391.336z"/>
</g>
</svg>
